<svg xmlns="http://www.w3.org/2000/svg" viewBox="0 0 920 260" role="img" aria-label="SICAT">
  <defs>
    <linearGradient id="g1" x1="0" y1="0" x2="1" y2="1">
      <stop offset="0%" stop-color="#0a2f67"/>
      <stop offset="100%" stop-color="#2bb3f3"/>
    </linearGradient>
    <linearGradient id="g2" x1="0" y1="0" x2="1" y2="0">
      <stop offset="0%" stop-color="#0a2f67"/>
      <stop offset="100%" stop-color="#19a6e5"/>
    </linearGradient>
  </defs>

  <rect width="100%" height="100%" fill="transparent"/>

  <circle cx="130" cy="130" r="95" fill="none" stroke="#0a2f67" stroke-width="14"/>
  <path d="M201 42 C245 90 245 170 201 218" fill="none" stroke="#66c34a" stroke-width="16" stroke-linecap="round"/>
  <path d="M196 38 C255 95 255 165 196 222" fill="none" stroke="#0f4b85" stroke-width="8" stroke-linecap="round"/>

  <g stroke="#163e73" stroke-width="8" stroke-linecap="round">
    <line x1="18" y1="78" x2="78" y2="78"/>
    <line x1="8" y1="112" x2="72" y2="112"/>
    <line x1="14" y1="146" x2="76" y2="146"/>
    <line x1="24" y1="180" x2="84" y2="180"/>
  </g>
  <g fill="#163e73">
    <circle cx="14" cy="78" r="8"/>
    <circle cx="8" cy="112" r="8"/>
    <circle cx="14" cy="146" r="8"/>
    <circle cx="24" cy="180" r="8"/>
  </g>

  <text x="90" y="165" font-family="Segoe UI, Arial, sans-serif" font-size="150" font-weight="900" fill="url(#g1)">S</text>
  <text x="280" y="170" font-family="Segoe UI, Arial, sans-serif" font-size="118" font-weight="800" fill="url(#g2)" letter-spacing="4">SICAT</text>

  <path d="M305 206 Q560 172 854 198" fill="none" stroke="#2b8a3e" stroke-width="8"/>
</svg>
